<?xml version="1.0" encoding="UTF-8"?>
<svg id="ACADEMY" xmlns="http://www.w3.org/2000/svg" viewBox="0 0 2000 1000">
  <defs>
    <style>
      .cls-1 {
        fill: #092676;
      }
    </style>
  </defs>
  <g>
    <g>
      <path class="cls-1" d="M1035.92,597.67c-26.88,0-51.02-5.8-72.43-17.39-21.41-11.59-38.34-28.62-50.79-51.08-12.45-22.46-18.68-49.96-18.68-82.51s6.32-60.47,18.97-83c12.65-22.53,29.71-39.55,51.18-51.08,21.47-11.53,45.38-17.29,71.74-17.29,18.31,0,35.21,2.47,50.69,7.41,15.48,4.94,29.08,12.15,40.81,21.64,11.72,9.49,21.21,21.15,28.46,34.98,7.24,13.83,11.79,29.64,13.64,47.43h-81.02c-.79-6.32-2.47-12.06-5.04-17.19-2.57-5.14-5.96-9.55-10.18-13.24-4.22-3.69-9.26-6.52-15.12-8.5-5.86-1.98-12.48-2.96-19.86-2.96-13.31,0-24.6,3.26-33.89,9.78-9.29,6.52-16.3,15.88-21.05,28.06-4.74,12.19-7.11,26.85-7.11,43.97s2.44,32.94,7.31,45.06c4.87,12.12,11.89,21.21,21.05,27.27,9.16,6.06,20.26,9.09,33.3,9.09,7.38,0,13.96-.99,19.76-2.96,5.8-1.98,10.87-4.81,15.22-8.5,4.35-3.69,7.87-8.1,10.57-13.24,2.7-5.14,4.51-10.87,5.43-17.19h81.02c-.92,12.52-4.38,25.3-10.38,38.34-6,13.04-14.56,25.1-25.69,36.16-11.13,11.07-24.83,19.99-41.1,26.78-16.27,6.78-35.21,10.18-56.82,10.18Z"/>
      <path class="cls-1" d="M1307.09,598.46c-21.08,0-39.26-3.75-54.54-11.26-15.29-7.51-27.01-17.55-35.18-30.14-8.17-12.58-12.25-26.45-12.25-41.6,0-11.07,2.04-20.91,6.13-29.54,4.08-8.63,9.91-16.5,17.49-23.62,7.57-7.11,16.57-13.9,26.98-20.35l66.79-41.5c4.48-2.77,7.97-5.63,10.47-8.6,2.5-2.96,4.28-5.89,5.33-8.79,1.05-2.9,1.58-5.53,1.58-7.91,0-4.61-1.75-8.73-5.24-12.35-3.49-3.62-8.86-5.43-16.11-5.43-4.48,0-8.33.82-11.56,2.47-3.23,1.65-5.73,3.99-7.51,7.02-1.78,3.03-2.67,6.59-2.67,10.67,0,5.67,1.55,11.53,4.64,17.59,3.09,6.06,7.44,12.48,13.04,19.27,5.6,6.79,12.08,14.26,19.46,22.43l142.68,156.91h-79.44l-119.36-126.48c-5.93-6.32-12.42-14-19.47-23.02-7.05-9.02-13.14-19.23-18.28-30.63-5.14-11.39-7.71-23.81-7.71-37.25,0-15.02,3.59-28.69,10.77-41.01,7.18-12.32,17.22-22.13,30.14-29.45,12.91-7.31,27.99-10.97,45.25-10.97s30.66,3.39,42.59,10.18c11.92,6.79,21.11,15.81,27.57,27.07,6.45,11.26,9.68,23.75,9.68,37.45,0,9.09-1.52,17.82-4.55,26.18-3.03,8.37-7.44,16.17-13.24,23.42-5.8,7.25-12.91,13.9-21.34,19.96l-60.87,43.08c-4.61,3.29-8.66,7.05-12.15,11.26-3.49,4.22-5.24,9.68-5.24,16.4,0,5.53,1.32,10.28,3.95,14.23,2.63,3.95,6.32,6.98,11.07,9.09,4.74,2.11,10.28,3.16,16.6,3.16,9.88,0,19.73-2.37,29.54-7.11,9.81-4.74,18.77-11.43,26.88-20.06,8.1-8.63,14.62-18.8,19.56-30.53,4.94-11.72,7.41-24.5,7.41-38.34h62.84c0,17-1.78,33.4-5.34,49.21-3.56,15.81-9.26,30.27-17.09,43.38-7.84,13.11-18.15,24.14-30.93,33.1l-22.13,10.67c-11.73,7.64-24.28,13.17-37.65,16.6-13.37,3.42-26.25,5.14-38.63,5.14Z"/>
      <path class="cls-1" d="M1503.37,593.72v-294.46h126.87c21.87,0,41.01,4.32,57.41,12.94,16.4,8.63,29.18,20.78,38.34,36.46,9.16,15.68,13.73,33.99,13.73,54.94s-4.68,39.3-14.03,54.64c-9.36,15.35-22.46,27.21-39.33,35.57-16.87,8.37-36.5,12.55-58.89,12.55h-75.89v-62.05h59.68c9.49,0,17.59-1.68,24.31-5.04,6.72-3.36,11.86-8.07,15.41-14.13,3.56-6.06,5.34-13.24,5.34-21.54s-1.78-15.84-5.34-21.84c-3.56-5.99-8.7-10.57-15.41-13.73-6.72-3.16-14.82-4.74-24.31-4.74h-28.06v230.43h-79.84Z"/>
    </g>
    <g>
      <path class="cls-1" d="M891.34,754.83l37.04-106.13h24.15l37.89,106.13h-20.87l-18.88-55.13c-1.85-5.7-3.78-12.14-5.77-19.34-1.99-7.19-4.2-15.37-6.62-24.54h3.99c-2.38,9.26-4.52,17.51-6.45,24.75-1.92,7.24-3.74,13.62-5.45,19.12l-18.23,55.13h-20.8ZM912.92,728.55v-15.31h55.92v15.31h-55.92Z"/>
      <path class="cls-1" d="M1051.28,756.25c-9.31,0-17.62-2.16-24.93-6.48-7.31-4.32-13.08-10.54-17.31-18.66s-6.34-17.88-6.34-29.27,2.12-21.24,6.38-29.38c4.25-8.14,10.04-14.38,17.38-18.7,7.34-4.32,15.61-6.48,24.82-6.48,5.79,0,11.22.82,16.28,2.46,5.06,1.64,9.57,4.04,13.53,7.19s7.23,7.02,9.79,11.57,4.27,9.74,5.13,15.53h-19.16c-.62-3.18-1.67-5.98-3.17-8.41s-3.36-4.47-5.59-6.16c-2.23-1.69-4.75-2.97-7.55-3.85-2.8-.88-5.79-1.32-8.97-1.32-5.79,0-10.93,1.46-15.42,4.38-4.49,2.92-8,7.17-10.54,12.75-2.54,5.58-3.81,12.38-3.81,20.41s1.28,14.96,3.85,20.51,6.09,9.76,10.58,12.61c4.49,2.85,9.58,4.27,15.28,4.27,3.18,0,6.17-.44,8.97-1.32,2.8-.88,5.33-2.16,7.59-3.85,2.26-1.68,4.14-3.75,5.66-6.2,1.52-2.45,2.56-5.24,3.13-8.37h19.23c-.71,5.08-2.27,9.84-4.67,14.28s-5.54,8.35-9.44,11.72c-3.89,3.37-8.42,6.01-13.57,7.91-5.15,1.9-10.86,2.85-17.13,2.85Z"/>
      <path class="cls-1" d="M1107.87,754.83l37.04-106.13h24.15l37.89,106.13h-20.87l-18.88-55.13c-1.85-5.7-3.78-12.14-5.77-19.34-1.99-7.19-4.2-15.37-6.62-24.54h3.99c-2.38,9.26-4.52,17.51-6.45,24.75-1.92,7.24-3.74,13.62-5.45,19.12l-18.23,55.13h-20.8ZM1129.45,728.55v-15.31h55.92v15.31h-55.92Z"/>
      <path class="cls-1" d="M1241.6,648.7v106.13h-19.02v-106.13h19.02ZM1258.48,754.83h-26.85v-16.45h25.93c7.41,0,13.59-1.36,18.55-4.1,4.96-2.73,8.7-6.81,11.22-12.25,2.52-5.44,3.78-12.24,3.78-20.41s-1.26-14.82-3.78-20.23c-2.52-5.41-6.21-9.47-11.08-12.18-4.87-2.71-10.93-4.06-18.2-4.06h-27v-16.45h28.13c10.54,0,19.59,2.11,27.14,6.34,7.55,4.23,13.36,10.3,17.42,18.23,4.06,7.93,6.09,17.38,6.09,28.35s-2.03,20.57-6.09,28.53c-4.06,7.95-9.92,14.06-17.59,18.31-7.67,4.25-16.89,6.38-27.67,6.38Z"/>
      <path class="cls-1" d="M1329.39,754.83v-106.13h68.95v16.03h-49.93v28.63h46.23v15.81h-46.23v29.63h50.22v16.03h-69.23Z"/>
      <path class="cls-1" d="M1419.17,754.83v-106.13h28.63l20.16,54.78c.71,2.04,1.51,4.67,2.39,7.87.88,3.21,1.78,6.66,2.71,10.36.93,3.7,1.8,7.33,2.64,10.86.83,3.54,1.53,6.66,2.1,9.37h-3.85c.57-2.66,1.27-5.73,2.1-9.22s1.71-7.1,2.64-10.83c.93-3.73,1.83-7.21,2.71-10.44.88-3.23,1.65-5.89,2.31-7.98l19.94-54.78h28.71v106.13h-18.95v-53.56c0-2.28.02-5.03.07-8.26.05-3.23.12-6.7.21-10.4.09-3.7.19-7.44.28-11.22.09-3.77.14-7.37.14-10.79h1.35c-.95,3.75-1.98,7.59-3.1,11.5-1.12,3.92-2.22,7.72-3.31,11.4-1.09,3.68-2.12,7.06-3.1,10.15-.97,3.09-1.82,5.63-2.53,7.62l-19.59,53.56h-16.17l-19.87-53.56c-.71-1.99-1.56-4.5-2.53-7.51-.97-3.01-2.02-6.35-3.13-10.01-1.12-3.66-2.23-7.47-3.35-11.43-1.12-3.96-2.22-7.87-3.31-11.72h1.57c.05,3.18.12,6.64.21,10.36.09,3.73.18,7.47.25,11.22.07,3.75.14,7.28.21,10.58.07,3.3.11,6.14.11,8.51v53.56h-18.66Z"/>
      <path class="cls-1" d="M1587.24,754.83v-41.1l-39.18-65.03h22.22l18.95,33.48c1.99,3.52,3.77,6.93,5.34,10.26,1.57,3.32,3.18,7.38,4.84,12.18h-4.99c1.61-4.84,3.19-8.95,4.74-12.32,1.54-3.37,3.26-6.74,5.17-10.12l18.59-33.48h22.08l-38.75,65.03v41.1h-19.02Z"/>
    </g>
  </g>
  <path class="cls-1" d="M625.16,584.59c17.22,12.86,35.01,26.59,56.43,27.18,42.05.95,66.35-53,80.11-87.3,25.43-70.81,39.5-151.45,24.28-225.65-3.57-13.57-7.99-25.85-16.97-34.96-14.25-12.65-39.38-15.02-57.03-8.99-8.57,2.99-17.67,7.47-25.78,12.62-35.87,21.5-55.56,59.48-72.31,96.4-36.68,81.84-59.05,170-82.47,257.3-13.52,46.31-23.06,95.61-49.74,137.41-36.97,57.36-101.96,73.25-157.36,30.09-98.41-74.03-79.54-312.92-53.24-420.88,23.53-96.19,73.6-205.99,192.64-176.02,23.57,6.69,44.73,19.26,62.22,35.07,0,0,10,8.3,24.78,16.55,3.73,2.08,1.07,7.82-2.91,6.26-7.94-3.12-17.34-7.89-28.03-15.17-18.46-12.57-38.69-22.29-59.91-25.87-75.07-12.26-114.29,37.32-135.33,102.89-20.28,63.45-26.49,131.04-27.68,197.62.22,65.59,5.07,195.06,60.04,235.78,12.91,9.26,27.24,15.56,41.94,12.07,50.08-14.44,62.97-105.51,77.41-150.68,24.04-88.34,47.74-178.99,88.91-265.29,10.9-21.96,22.27-43.96,36.75-63.96,31.84-41.54,84.46-78.22,138.81-72.26,98.38,10.05,97.06,119.39,86.28,194.44-8.63,67.13-59.29,238.37-146.63,227.66-25.33-3.36-45.01-19.38-62.36-35.31l-17.82-18.64c-1.48-1.55-1.52-3.97-.1-5.57h0c1.59-1.79,4.37-1.84,6.03-.11,0,0,7.88,9.01,19.05,17.35Z"/>
</svg>